<svg xmlns="http://www.w3.org/2000/svg" width="360" height="480" viewBox="0 0 360 480" fill="none">

  <filter id="paperShadow" x="-20%" y="-20%" width="140%" height="140%">
    <feDropShadow dx="0" dy="6" stdDeviation="4" flood-color="#000" flood-opacity="0.23"/>
  </filter>

  <rect x="10" y="10" width="340" height="460" rx="26" fill="#fff7ea" stroke="#f0e6d2" stroke-width="3" filter="url(#paperShadow)"/>
  <path d="M40 52 L322 52" stroke="#111111" stroke-width="8" stroke-linecap="round"/>
  <path d="M42 52 L42 426" stroke="#111111" stroke-width="8" stroke-linecap="round"/>
  <path d="M322 52 L322 426" stroke="#111111" stroke-width="8" stroke-linecap="round"/>
  <path d="M42 426 L322 426" stroke="#111111" stroke-width="8" stroke-linecap="round"/>
  <text x="36" y="45" font-size="48" font-family="'Comic Sans MS', 'Trebuchet MS', sans-serif" fill="#111111" font-weight="700">7</text>
  <text x="302" y="466" font-size="48" font-family="'Comic Sans MS', 'Trebuchet MS', sans-serif" fill="#111111" font-weight="700">7</text>
  <g transform="translate(72 110)">

    <ellipse cx="106" cy="204" rx="76" ry="84" fill="#88b972" stroke="#111" stroke-width="8"/>
    <ellipse cx="74" cy="132" rx="38" ry="42" fill="#7cae64" stroke="#111" stroke-width="8"/>
    <ellipse cx="144" cy="132" rx="38" ry="42" fill="#7cae64" stroke="#111" stroke-width="8"/>
    <ellipse cx="106" cy="110" rx="56" ry="62" fill="#9ad181" stroke="#111" stroke-width="8"/>
    <ellipse cx="88" cy="108" rx="11" ry="14" fill="#fff" stroke="#111" stroke-width="5"/>
    <ellipse cx="126" cy="108" rx="11" ry="14" fill="#fff" stroke="#111" stroke-width="5"/>
    <circle cx="88" cy="110" r="4" fill="#111"/>
    <circle cx="126" cy="110" r="4" fill="#111"/>
    <path d="M86 138 Q106 154 126 138" stroke="#111" stroke-width="7" stroke-linecap="round" fill="none"/>
    <path d="M159 172 L216 128 L230 152 L176 194 Z" fill="#bc8550" stroke="#111" stroke-width="8" stroke-linejoin="round"/>
    <path d="M214 126 L244 118 L240 172 L212 162 Z" fill="#d0d3da" stroke="#111" stroke-width="8" stroke-linejoin="round"/>
    <path d="M164 174 L126 214" stroke="#111" stroke-width="8" stroke-linecap="round"/>

  </g>
</svg>
