<svg xmlns="http://www.w3.org/2000/svg" width="360" height="480" viewBox="0 0 360 480" fill="none">

  <filter id="paperShadow" x="-20%" y="-20%" width="140%" height="140%">
    <feDropShadow dx="0" dy="6" stdDeviation="4" flood-color="#000" flood-opacity="0.23"/>
  </filter>

  <rect x="10" y="10" width="340" height="460" rx="26" fill="#eef9ff" stroke="#f0e6d2" stroke-width="3" filter="url(#paperShadow)"/>
  <path d="M40 52 L322 52" stroke="#111111" stroke-width="8" stroke-linecap="round"/>
  <path d="M42 52 L42 426" stroke="#111111" stroke-width="8" stroke-linecap="round"/>
  <path d="M322 52 L322 426" stroke="#111111" stroke-width="8" stroke-linecap="round"/>
  <path d="M42 426 L322 426" stroke="#111111" stroke-width="8" stroke-linecap="round"/>
  <text x="36" y="45" font-size="48" font-family="'Comic Sans MS', 'Trebuchet MS', sans-serif" fill="#111111" font-weight="700">6</text>
  <text x="302" y="466" font-size="48" font-family="'Comic Sans MS', 'Trebuchet MS', sans-serif" fill="#111111" font-weight="700">6</text>
  <g transform="translate(72 110)">

    <ellipse cx="106" cy="204" rx="78" ry="84" fill="#9bcf89" stroke="#111" stroke-width="8"/>
    <ellipse cx="106" cy="114" rx="54" ry="60" fill="#aee79b" stroke="#111" stroke-width="8"/>
    <ellipse cx="88" cy="112" rx="12" ry="14" fill="#fff" stroke="#111" stroke-width="5"/>
    <ellipse cx="124" cy="112" rx="12" ry="14" fill="#fff" stroke="#111" stroke-width="5"/>
    <circle cx="88" cy="113" r="4" fill="#111"/>
    <circle cx="124" cy="113" r="4" fill="#111"/>
    <path d="M86 140 Q106 150 126 140" stroke="#111" stroke-width="7" stroke-linecap="round" fill="none"/>
    <path d="M154 104 C208 92 244 138 236 194 C228 248 172 270 136 244 C112 228 108 190 122 156 C132 130 142 110 154 104 Z" fill="#7cc9f2" stroke="#111" stroke-width="8" stroke-linejoin="round"/>
    <path d="M166 138 L198 206" stroke="#111" stroke-width="8" stroke-linecap="round"/>
    <path d="M138 172 L224 172" stroke="#111" stroke-width="8" stroke-linecap="round"/>

  </g>
</svg>
