<svg xmlns="http://www.w3.org/2000/svg" width="360" height="480" viewBox="0 0 360 480" fill="none">

  <filter id="paperShadow" x="-20%" y="-20%" width="140%" height="140%">
    <feDropShadow dx="0" dy="6" stdDeviation="4" flood-color="#000" flood-opacity="0.23"/>
  </filter>

  <rect x="10" y="10" width="340" height="460" rx="26" fill="#effff1" stroke="#f0e6d2" stroke-width="3" filter="url(#paperShadow)"/>
  <path d="M40 52 L322 52" stroke="#111111" stroke-width="8" stroke-linecap="round"/>
  <path d="M42 52 L42 426" stroke="#111111" stroke-width="8" stroke-linecap="round"/>
  <path d="M322 52 L322 426" stroke="#111111" stroke-width="8" stroke-linecap="round"/>
  <path d="M42 426 L322 426" stroke="#111111" stroke-width="8" stroke-linecap="round"/>
  <text x="36" y="45" font-size="48" font-family="'Comic Sans MS', 'Trebuchet MS', sans-serif" fill="#111111" font-weight="700">4</text>
  <text x="302" y="466" font-size="48" font-family="'Comic Sans MS', 'Trebuchet MS', sans-serif" fill="#111111" font-weight="700">4</text>
  <g transform="translate(72 110)">

    <path d="M78 68 L136 68 L146 130 L70 130 Z" fill="#2f5a9d" stroke="#111" stroke-width="8" stroke-linejoin="round"/>
    <path d="M96 84 L118 84 L118 98 L132 98 L132 118 L118 118 L118 134 L96 134 L96 118 L82 118 L82 98 L96 98 Z" fill="#bfffd9" stroke="#111" stroke-width="5"/>
    <ellipse cx="106" cy="190" rx="78" ry="94" fill="#9fce89" stroke="#111" stroke-width="8"/>
    <ellipse cx="106" cy="148" rx="52" ry="56" fill="#c8f5b0" stroke="#111" stroke-width="8"/>
    <ellipse cx="90" cy="146" rx="12" ry="14" fill="#fff" stroke="#111" stroke-width="5"/>
    <ellipse cx="126" cy="146" rx="12" ry="14" fill="#fff" stroke="#111" stroke-width="5"/>
    <circle cx="90" cy="147" r="4" fill="#111"/>
    <circle cx="126" cy="147" r="4" fill="#111"/>
    <path d="M86 176 Q106 192 126 176" stroke="#111" stroke-width="7" stroke-linecap="round" fill="none"/>
    <ellipse cx="184" cy="204" rx="34" ry="46" fill="#6fc8ff" stroke="#111" stroke-width="8"/>
    <path d="M168 206 L200 206" stroke="#111" stroke-width="8" stroke-linecap="round"/>
    <path d="M184 190 L184 222" stroke="#111" stroke-width="8" stroke-linecap="round"/>

  </g>
</svg>
