<svg xmlns="http://www.w3.org/2000/svg" width="360" height="480" viewBox="0 0 360 480" fill="none">

  <filter id="paperShadow" x="-20%" y="-20%" width="140%" height="140%">
    <feDropShadow dx="0" dy="6" stdDeviation="4" flood-color="#000" flood-opacity="0.23"/>
  </filter>

  <rect x="10" y="10" width="340" height="460" rx="26" fill="#f8f0ff" stroke="#f0e6d2" stroke-width="3" filter="url(#paperShadow)"/>
  <path d="M40 52 L322 52" stroke="#111111" stroke-width="8" stroke-linecap="round"/>
  <path d="M42 52 L42 426" stroke="#111111" stroke-width="8" stroke-linecap="round"/>
  <path d="M322 52 L322 426" stroke="#111111" stroke-width="8" stroke-linecap="round"/>
  <path d="M42 426 L322 426" stroke="#111111" stroke-width="8" stroke-linecap="round"/>
  <text x="36" y="45" font-size="48" font-family="'Comic Sans MS', 'Trebuchet MS', sans-serif" fill="#111111" font-weight="700">8</text>
  <text x="302" y="466" font-size="48" font-family="'Comic Sans MS', 'Trebuchet MS', sans-serif" fill="#111111" font-weight="700">8</text>
  <g transform="translate(72 110)">

    <ellipse cx="106" cy="204" rx="78" ry="84" fill="#9ccd86" stroke="#111" stroke-width="8"/>
    <ellipse cx="106" cy="116" rx="54" ry="60" fill="#bae6a6" stroke="#111" stroke-width="8"/>
    <ellipse cx="86" cy="112" rx="11" ry="14" fill="#fff" stroke="#111" stroke-width="5"/>
    <ellipse cx="124" cy="112" rx="11" ry="14" fill="#fff" stroke="#111" stroke-width="5"/>
    <circle cx="86" cy="113" r="4" fill="#111"/>
    <circle cx="124" cy="113" r="4" fill="#111"/>
    <path d="M84 140 Q106 156 128 140" stroke="#111" stroke-width="7" stroke-linecap="round" fill="none"/>
    <path d="M164 178 C184 118 236 114 246 172 C252 210 228 234 196 236 C172 236 150 216 164 178 Z" fill="#cda2f4" stroke="#111" stroke-width="8"/>
    <path d="M178 176 Q196 154 214 176" stroke="#111" stroke-width="8" stroke-linecap="round" fill="none"/>
    <path d="M184 198 Q198 212 214 196" stroke="#111" stroke-width="8" stroke-linecap="round" fill="none"/>

  </g>
</svg>
